<?xml version="1.0" standalone="no"?>
<!DOCTYPE svg PUBLIC "-//W3C//DTD SVG 20010904//EN"
 "http://www.w3.org/TR/2001/REC-SVG-20010904/DTD/svg10.dtd">
<svg version="1.0" xmlns="http://www.w3.org/2000/svg"
 width="700.000000pt" height="700.000000pt" viewBox="0 0 700.000000 700.000000"
 preserveAspectRatio="xMidYMid meet">
<metadata>
Created by Replit Assistant based on Dr. Christopher Wong's logo
</metadata>
<g transform="translate(0.000000,700.000000) scale(0.100000,-0.100000)"
fill="#000000" stroke="none">
<path d="M3300 6050 c-570 -40 -1109 -272 -1525 -655 -121 -113 -288 -307
-375 -440 -243 -370 -368 -768 -370 -1185 -1 -223 8 -304 56 -500 126 -511
434 -982 854 -1309 107 -83 324 -219 440 -276 390 -192 792 -275 1220 -250
204 12 370 37 559 87 270 72 555 199 775 349 175 119 317 246 463 413 217 248
369 520 472 842 53 163 80 299 101 504 22 221 -6 586 -62 799 -183 692 -650
1260 -1293 1570 -274 133 -587 216 -895 240 -129 10 -291 13 -420 11z m285
-235 c507 -34 995 -236 1370 -568 114 -102 298 -315 380 -442 211 -327 337
-695 367 -1070 22 -275 -18 -585 -113 -875 -209 -638 -683 -1153 -1304 -1419
-348 -149 -659 -205 -1020 -185 -215 12 -391 44 -597 108 -166 52 -274 101
-438 198 -300 177 -550 408 -740 681 -208 300 -344 640 -399 1002 -19 124 -16
458 5 585 87 516 302 942 650 1291 342 342 767 559 1249 638 160 27 424 54
506 53 39 -1 77 -1 84 3z"/>
<path d="M3312 5764 c-323 -43 -621 -154 -892 -332 -262 -172 -516 -454 -652
-727 -96 -192 -154 -377 -189 -600 -19 -123 -16 -410 5 -535 108 -628 501
-1162 1071 -1455 219 -113 425 -180 680 -221 111 -17 459 -17 570 0 407 65
737 209 1040 454 89 72 255 238 327 327 235 293 384 627 445 997 21 128 15
462 -10 585 -89 430 -291 797 -601 1090 -351 331 -778 526 -1251 570 -123 11
-421 4 -543 -13 -36 -5 -95 -14 -132 -21 -165 -28 -409 -107 -568 -185 -60
-29 -112 -52 -115 -50 -2 3 8 26 22 51 125 222 426 493 690 620 83 39 253 106
287 111 17 3 27 -3 35 -19 15 -29 37 -44 45 -30 6 10 -15 68 -43 121 -30 55
-46 68 -79 65 -16 -2 -77 -11 -135 -19 -110 -17 -480 -24 -507 -9 -8 5 -11 10
-7 13 4 2 52 15 107 30 311 83 630 100 955 51 263 -40 574 -155 802 -297 l68
-43 -5 -30 c-3 -17 -14 -117 -25 -223 -23 -226 -39 -329 -69 -424 -55 -179
-149 -242 -372 -248 -102 -3 -114 -5 -132 -25 -28 -31 -15 -41 55 -41 83 -1
212 -26 269 -53 74 -35 116 -79 142 -151 51 -137 17 -376 -87 -623 -23 -55
-69 -158 -102 -230 -33 -71 -61 -133 -61 -138 0 -4 -10 -16 -23 -27 -34 -29
-56 -84 -72 -175 -16 -94 -41 -177 -73 -247 -12 -27 -22 -51 -22 -53 0 -2 17
9 37 24 l37 28 18 -23 c16 -21 17 -29 8 -60 -20 -70 -88 -143 -141 -153 -36
-6 -39 -10 -39 -45 0 -22 -4 -60 -10 -85 -9 -44 -10 -46 -37 -43 -74 10 -168
48 -205 83 -34 33 -38 42 -38 85 l0 47 42 0 c52 0 118 25 129 48 4 10 -38 -9
-94 -41 -56 -32 -121 -63 -144 -69 -54 -14 -177 -6 -224 15 -76 34 -106 145
-59 218 28 44 50 54 50 22 0 -19 9 -28 43 -43 33 -14 51 -16 87 -10 l45 9 65
-41 c36 -23 76 -45 90 -49 l25 -7 3 111 c2 96 0 120 -19 168 -12 31 -36 72
-52 91 -17 19 -62 75 -100 125 -56 72 -101 149 -120 205 -3 9 -26 63 -50 121
-25 57 -73 171 -108 252 -62 147 -79 203 -79 270 0 76 27 170 62 218 62 86
178 138 337 153 30 3 65 9 77 14 27 11 31 27 9 41 -15 9 -39 7 -125 -9 -173
-33 -272 -28 -354 17 -129 70 -217 237 -256 485 -25 163 -59 349 -70 387 -12
40 -23 58 -47 73 -17 11 -29 22 -25 25 3 3 40 26 82 51 170 99 359 181 535
231 167 47 339 81 465 91 57 4 108 12 114 17 14 11 6 46 -13 64 -18 16 -95 19
-191 9z"/>
<path d="M3462 4695 c-40 -30 -72 -60 -72 -66 0 -6 27 -10 68 -9 56 0 73 4 98
22 28 20 29 25 17 38 -29 34 -37 40 -47 40 -6 0 -35 -11 -64 -25z"/>
<path d="M3272 4708 c-17 -17 -15 -27 10 -46 14 -12 45 -15 125 -14 124 0 129
7 48 66 -54 39 -160 37 -183 -6z"/>
<path d="M3324 4532 c-47 -40 -93 -145 -110 -249 -6 -37 -18 -88 -27 -113 -19
-53 -40 -76 -58 -66 -7 4 -52 93 -100 197 -48 105 -92 194 -98 199 -5 6 -19 8
-30 5 -20 -5 -21 -12 -21 -166 0 -162 6 -208 35 -273 8 -17 15 -59 15 -93 0
-53 -7 -82 -40 -167 -22 -58 -40 -110 -40 -115 0 -15 19 -30 34 -25 9 3 16 22
19 47 3 23 13 102 22 177 l17 135 34 56 c18 31 41 63 49 72 19 20 19 21 28
-97 4 -49 13 -104 21 -122 26 -58 115 -83 180 -50 39 20 69 67 81 126 10 49
36 90 55 90 17 0 60 -75 60 -105 0 -38 22 -42 41 -8 21 37 23 85 4 103 -20 20
-19 48 5 98 25 53 32 96 16 103 -7 2 -21 -5 -32 -15 -19 -18 -24 -49 -14 -85
10 -37 -6 -22 -47 45 -52 85 -71 103 -99 88z m-64 -472 c0 -12 -7 -20 -17 -20
-15 0 -16 -7 -10 -62 9 -88 -21 -161 -81 -197 -45 -27 -89 -27 -135 -1 -43 25
-77 91 -77 150 0 24 7 53 15 64 22 30 17 46 -15 46 -16 0 -29 3 -29 8 -1 4 -3
16 -4 27 -3 20 0 20 177 20 166 0 179 -1 176 -17 -3 -11 -2 -18 1 -18 3 1 3
-5 -1 -13 -3 -8 1 -2 10 13 9 15 20 28 25 28 4 0 8 5 8 10 0 6 5 10 10 10 6 0
10 -8 10 -18 0 -11 5 -28 12 -38 9 -14 9 -13 4 8 -4 14 -9 32 -11 41 -3 9 1
17 9 17 7 0 14 -9 14 -20z"/>
<path d="M3414 4015 c-8 -20 3 -45 21 -45 19 0 30 25 18 45 -11 21 -31 21 -39
0z"/>
</g>
</svg>